<svg aria-hidden="true" style="position: absolute; width: 0; height: 0; overflow: hidden;" version="1.1"
    xmlns="http://www.w3.org/2000/svg" xmlns:xlink="http://www.w3.org/1999/xlink">
    <defs>
        <symbol id="telegram" viewBox="0 0 22 19">
            <path fill-rule="inherit" clip-rule="evenodd"
                d="m9 12 9-8-1-1-11 8-5-2V8l19-8c1 0 2 0 2 2l-3 15c-1 1-1 2-2 1l-5-4-3 3H8l1-5Z" />
        </symbol>
        <symbol id="facebook" viewBox="0 0 11 22">
            <path fill-rule="evenodd" clip-rule="evenodd" d="M7 22V11h3V7H7V5l2-1h1V0H7C4 0 3 2 3 5v2H0v4h3v11h4Z" />
        </symbol>
        <symbol id="instagram" viewBox="0 0 22 22">
            <path fill-rule="evenodd" clip-rule="evenodd"
                d="M6.6.4C7.74.35 8.1.33 11 .33c2.9 0 3.26.02 4.4.07 1.13.05 1.9.23 2.59.5.7.27 1.3.63 1.89 1.22.59.6.95 1.2 1.23 1.9.26.67.44 1.45.5 2.58.04 1.14.06 1.5.06 4.4 0 2.9-.02 3.26-.07 4.4a7.9 7.9 0 0 1-.5 2.59c-.27.7-.63 1.3-1.22 1.89-.6.59-1.2.95-1.9 1.23-.67.26-1.45.44-2.58.5-1.14.04-1.5.06-4.4.06-2.9 0-3.26-.02-4.4-.07a7.84 7.84 0 0 1-2.59-.5c-.7-.27-1.3-.63-1.89-1.22-.59-.6-.95-1.2-1.23-1.9a7.84 7.84 0 0 1-.5-2.58C.36 14.26.34 13.9.34 11c0-2.9.02-3.26.07-4.4a7.8 7.8 0 0 1 .5-2.59c.27-.7.63-1.3 1.22-1.89.6-.59 1.2-.95 1.9-1.23A7.83 7.83 0 0 1 6.6.4Zm4.05 1.86h-.6c-2 0-2.38 0-3.36.05a5.9 5.9 0 0 0-1.98.37c-.5.2-.85.43-1.23.8-.37.37-.6.73-.8 1.23a5.9 5.9 0 0 0-.36 1.98 74.5 74.5 0 0 0-.06 4.3c0 2.85 0 3.2.06 4.32a5.9 5.9 0 0 0 .37 1.98c.19.5.42.85.8 1.22.37.38.72.6 1.22.8.38.15.94.32 1.98.37 1.13.05 1.46.06 4.31.06 2.85 0 3.19-.01 4.31-.06a5.89 5.89 0 0 0 1.98-.37c.5-.2.85-.42 1.23-.8.37-.37.6-.73.8-1.22.14-.38.32-.94.36-1.98.05-1.13.07-1.47.07-4.31 0-2.85-.02-3.19-.07-4.31a5.9 5.9 0 0 0-.36-1.98c-.2-.5-.43-.85-.8-1.23a3.3 3.3 0 0 0-1.23-.8 5.9 5.9 0 0 0-1.98-.36 74.57 74.57 0 0 0-4.3-.06h-.36ZM5.52 11a5.48 5.48 0 1 1 10.96 0 5.48 5.48 0 0 1-10.96 0Zm9.04 0a3.56 3.56 0 1 0-7.11 0 3.56 3.56 0 0 0 7.1 0Zm.85-5.7c0-.7.58-1.27 1.29-1.27A1.28 1.28 0 1 1 15.4 5.3Z" />
        </symbol>
        <symbol id="smartphone" viewBox="0 0 24 24">
            <path stroke="#1E2E36" stroke-linecap="round" stroke-linejoin="round" stroke-width="1.5"
                d="M17 2H7a2 2 0 0 0-2 2v16a2 2 0 0 0 2 2h10a2 2 0 0 0 2-2V4a2 2 0 0 0-2-2ZM12 18h.01" />
        </symbol>
        <symbol id="vector" viewBox="0 0 56 32">
            <path
                d="M54.121 1.879c1.172 1.172 1.172 3.071 0 4.243l-24 24c-1.172 1.172-3.071 1.172-4.243 0l-24-24c-1.172-1.172-1.172-3.071 0-4.243s3.071-1.172 4.243 0l21.879 21.879 21.879-21.879c1.172-1.172 3.071-1.172 4.242 0z">
            </path>
        </symbol>
        <symbol id="logo" viewBox="0 0 53 32">
            <path fill="#44c697" style="fill: var(--color1, #44c697)"
                d="M13.582 12.582h24.128v-3.405h-24.128v-5.745h24.128v-3.405h-25.986c-0.864 0-1.57 0.702-1.57 1.56v16.767h3.428v-5.771z">
            </path>
            <path style="fill: var(--color2, #1e2e36)"
                d="M41.636 0h-1.884v18.327h3.428v-16.767c0.026-0.858-0.68-1.56-1.544-1.56z"></path>
            <path style="fill: var(--color2, #1e2e36)"
                d="M45.901 11.932v9.098h-38.469v-9.098h-5.469c-1.099 0-1.963 0.884-1.963 1.95v5.173c0 1.092 0.89 1.95 1.963 1.95h1.256l0.55 6.395v4.601h1.413l1.649-4.601h39.673l1.649 4.601h1.413v-4.601l0.55-6.395h1.256c1.099 0 1.963-0.884 1.963-1.95v-5.173c0-1.092-0.89-1.95-1.963-1.95h-5.469z">
            </path>
        </symbol>
        <symbol id="cart" viewBox="0 0 31 31">
            <path
                d="M11.613 27.29c-0.178 0-0.323 0.144-0.323 0.323s0.144 0.323 0.323 0.323c0.178 0 0.323-0.144 0.323-0.323s-0.144-0.323-0.323-0.323zM9.355 27.613c0-1.247 1.011-2.258 2.258-2.258s2.258 1.011 2.258 2.258c0 1.247-1.011 2.258-2.258 2.258s-2.258-1.011-2.258-2.258z">
            </path>
            <path
                d="M25.806 27.29c-0.178 0-0.323 0.144-0.323 0.323s0.144 0.323 0.323 0.323c0.178 0 0.323-0.144 0.323-0.323s-0.144-0.323-0.323-0.323zM23.548 27.613c0-1.247 1.011-2.258 2.258-2.258s2.258 1.011 2.258 2.258c0 1.247-1.011 2.258-2.258 2.258s-2.258-1.011-2.258-2.258z">
            </path>
            <path
                d="M0.323 1.806c0-0.534 0.433-0.968 0.968-0.968h5.161c0.461 0 0.858 0.326 0.949 0.778l1.136 5.674h21.141c0.288 0 0.562 0.129 0.746 0.351s0.259 0.515 0.205 0.798l-2.066 10.833c-0.162 0.817-0.607 1.551-1.255 2.073-0.646 0.52-1.454 0.797-2.283 0.784h-12.525c-0.829 0.014-1.637-0.264-2.283-0.784-0.648-0.522-1.093-1.255-1.255-2.072l-2.157-10.779c-0.008-0.030-0.014-0.060-0.018-0.092l-1.127-5.629h-4.368c-0.534 0-0.968-0.433-0.968-0.968zM8.924 9.226l1.935 9.67c0.074 0.371 0.276 0.705 0.571 0.942s0.664 0.364 1.042 0.356l0.019-0 12.561 0c0.378 0.007 0.747-0.119 1.042-0.356 0.294-0.237 0.496-0.569 0.57-0.939l0.001-0.003 1.844-9.67h-19.584z">
            </path>
        </symbol>
        <symbol id="arrow-left" viewBox="0 0 8 12">
            <path
                d="M.68 5.87c0-.21.08-.42.24-.58L5.83.24a.79.79 0 0 1 1.14 0c.31.32.31.84 0 1.16L2.6 5.87l4.36 4.47c.31.32.31.84 0 1.16a.79.79 0 0 1-1.14 0L.92 6.45a.83.83 0 0 1-.24-.58Z" />
        </symbol>
        <symbol id="arrow-right" viewBox="0 0 8 12">
            <path
                d="M6.38 5.87c0 .21-.07.42-.23.58L1.34 11.5c-.3.32-.8.32-1.11 0a.85.85 0 0 1 0-1.16l4.26-4.47L.23 1.4a.85.85 0 0 1 0-1.16c.3-.32.8-.32 1.1 0L6.16 5.3c.16.16.23.37.23.58Z" />
        </symbol>
        <symbol id="sofa" viewBox="0 0 100 84">
            <path
                d="M46.67 79.18h-29.9a4.51 4.51 0 0 1-4.51-4.5V63.05c0-2.5 2.02-4.5 4.5-4.51h29.9c2.5 0 4.5 2.02 4.51 4.5v11.62c0 2.49-2.02 4.5-4.5 4.5Zm-29.9-18.29c-1.2 0-2.17.97-2.17 2.17v11.61c0 1.2.97 2.16 2.16 2.17h29.9c1.2 0 2.17-.97 2.17-2.17V63.06c0-1.2-.97-2.16-2.16-2.17h-29.9Z" />
            <path
                d="M10.1 79.18H4.5a4.51 4.51 0 0 1-4.5-4.5V52.43c0-2.5 2.02-4.5 4.5-4.51h5.6c2.48 0 4.5 2.02 4.5 4.5v22.24c0 2.49-2.02 4.5-4.5 4.5Zm-5.6-28.9c-1.19 0-2.15.96-2.16 2.16v22.23c0 1.2.97 2.16 2.17 2.17h5.59c1.19 0 2.16-.97 2.16-2.17V52.44c0-1.2-.97-2.17-2.16-2.17H4.5Z" />
            <path
                d="M86.57 70.04H13.43a1.17 1.17 0 0 1 0-2.35h73.14a1.17 1.17 0 1 1 0 2.35ZM46.67 60.9h-29.9a4.51 4.51 0 0 1-4.51-4.51V38.54c0-2.49 2.02-4.5 4.5-4.5h29.9c2.5 0 4.5 2.01 4.51 4.5V56.4c0 2.49-2.02 4.5-4.5 4.5Zm-29.9-24.52c-1.2 0-2.17.97-2.17 2.16v17.85c0 1.2.97 2.16 2.16 2.16h29.9c1.2 0 2.17-.97 2.17-2.16V38.54c0-1.2-.97-2.16-2.16-2.16h-29.9Z" />
            <path
                d="M83.24 60.9h-29.9a4.51 4.51 0 0 1-4.51-4.51V38.54c0-2.49 2.02-4.5 4.5-4.5h29.9c2.5 0 4.5 2.01 4.51 4.5V56.4c0 2.49-2.02 4.5-4.5 4.5Zm-29.9-24.52c-1.2 0-2.17.97-2.17 2.16v17.85c0 1.2.97 2.16 2.16 2.16h29.9c1.2 0 2.17-.97 2.17-2.16V38.54c0-1.2-.97-2.16-2.16-2.16h-29.9Z" />
            <path
                d="M83.24 79.18h-29.9a4.51 4.51 0 0 1-4.51-4.5V63.05c0-2.5 2.02-4.5 4.5-4.51h29.9c2.5 0 4.5 2.02 4.51 4.5v11.62c0 2.49-2.02 4.5-4.5 4.5Zm-29.9-18.29c-1.2 0-2.17.97-2.17 2.17v11.61c0 1.2.97 2.16 2.16 2.17h29.9c1.2 0 2.17-.97 2.17-2.17V63.06c0-1.2-.97-2.16-2.16-2.17h-29.9Z" />
            <path
                d="M95.5 79.18h-5.6a4.51 4.51 0 0 1-4.5-4.5V52.43c0-2.5 2.02-4.5 4.5-4.51h5.6c2.48 0 4.5 2.02 4.5 4.5v22.24c0 2.49-2.02 4.5-4.5 4.5Zm-5.6-28.9c-1.19 0-2.16.96-2.16 2.16v22.23c0 1.2.97 2.16 2.16 2.17h5.6c1.19 0 2.15-.97 2.16-2.17V52.44c0-1.2-.97-2.17-2.17-2.17H89.9ZM52.74 60.9h-5.48a1.17 1.17 0 0 1 0-2.35h5.48a1.17 1.17 0 0 1 0 2.34ZM71.45 30.64h-42.9c-.65 0-1.17-.53-1.17-1.17V1.62c0-.64.52-1.17 1.17-1.17h42.9c.65 0 1.17.53 1.17 1.17v27.85c0 .64-.52 1.17-1.17 1.17ZM29.72 28.3h40.56V2.8H29.72v25.5Z" />
            <path
                d="M67.55 26.73h-35.1c-.64 0-1.17-.52-1.17-1.17V5.53c0-.65.53-1.17 1.17-1.17h35.1c.64 0 1.17.52 1.17 1.17v20.03c0 .65-.53 1.18-1.17 1.18ZM33.63 24.4h32.75V6.7H33.63v17.7Z" />
            <path
                d="M36.65 22.44a1.17 1.17 0 0 1-.83-2l6.03-6.03c.46-.45 1.2-.45 1.66 0l3.66 3.66a1.17 1.17 0 0 1-1.66 1.66l-2.83-2.83-5.2 5.2c-.22.22-.52.34-.83.34Z" />
            <path
                d="M63.35 22.38c-.31 0-.61-.12-.83-.34a12333.8 12333.8 0 0 1-9.1-9.1l-.75-.75-.7-.7L45.43 18a1.17 1.17 0 0 1-1.66-1.65L51.14 9c.22-.22.51-.35.82-.35.32 0 .61.13.83.35.52.5 1.03 1.02 1.54 1.53l.75.76a5200.47 5200.47 0 0 0 9.1 9.09 1.17 1.17 0 0 1-.83 2Z" />
            <path
                d="M59.07 18.1c-.31 0-.61-.12-.83-.34l-4.81-4.82a1.17 1.17 0 0 1-.26-1.27 4.86 4.86 0 1 1 6.34 6.34c-.14.06-.29.09-.44.09Zm-3.35-6.18 3.54 3.55a2.52 2.52 0 1 0-3.54-3.55ZM92.7 83.55a3.08 3.08 0 0 1-3-2.34l-.72-2.92a1.17 1.17 0 0 1 1.14-1.45h5.16a1.17 1.17 0 0 1 1.14 1.45l-.73 2.92a3.08 3.08 0 0 1-3 2.34Zm-1.08-4.37.36 1.46a.74.74 0 0 0 1.44 0l.36-1.46h-2.16ZM7.3 83.55a3.08 3.08 0 0 1-3-2.34l-.72-2.92a1.17 1.17 0 0 1 1.14-1.45h5.16a1.17 1.17 0 0 1 1.14 1.45l-.73 2.92a3.08 3.08 0 0 1-2.99 2.34Zm-1.08-4.37.36 1.46a.74.74 0 0 0 1.44 0l.36-1.46H6.22Z" />
        </symbol>
        <symbol id="bed" viewBox="0 0 82 100">
            <path
                d="M75.69 33.76H6.3c-.64 0-1.17-.52-1.17-1.17V8.25c0-.65.53-1.17 1.17-1.17H75.7c.64 0 1.17.52 1.17 1.17v24.34c0 .65-.53 1.17-1.17 1.17Zm-68.2-2.34H74.5v-22H7.5v22Z" />
            <path
                d="M70.3 33.76H11.7c-.65 0-1.18-.52-1.18-1.17V13.63c0-.65.53-1.18 1.17-1.18h58.62c.64 0 1.17.53 1.17 1.18v18.96c0 .65-.53 1.17-1.17 1.17Zm-57.43-2.34h56.26V14.8H12.87v16.62Z" />
            <path
                d="M37.47 33.76H15.23c-2.6 0-4.7-2.1-4.7-4.7v-11.9c0-2.6 2.1-4.7 4.7-4.7h22.24c2.6 0 4.7 2.1 4.7 4.7v11.9c0 2.6-2.1 4.7-4.7 4.7ZM15.23 14.8a2.37 2.37 0 0 0-2.37 2.36v11.9c0 1.3 1.06 2.36 2.37 2.36h22.24c1.3 0 2.36-1.06 2.36-2.37V17.16c0-1.3-1.06-2.36-2.36-2.36H15.23Z" />
            <path
                d="M66.77 33.76H44.53c-2.6 0-4.7-2.1-4.7-4.7v-11.9c0-2.6 2.1-4.7 4.7-4.7h22.24c2.6 0 4.7 2.1 4.7 4.7v11.9c0 2.6-2.1 4.7-4.7 4.7ZM44.53 14.8a2.37 2.37 0 0 0-2.36 2.36v11.9c0 1.3 1.06 2.36 2.36 2.36h22.24c1.3 0 2.36-1.06 2.36-2.37V17.16c0-1.3-1.05-2.36-2.36-2.36H44.53Z" />
            <path
                d="M76.53 92.92H5.47c-2.6 0-4.7-2.1-4.7-4.7v-52.1c0-2.6 2.1-4.7 4.7-4.7h71.06c2.6 0 4.7 2.1 4.7 4.7v52.1c0 2.6-2.1 4.7-4.7 4.7ZM5.47 33.76a2.37 2.37 0 0 0-2.37 2.36v52.1c0 1.3 1.06 2.36 2.37 2.36h71.06c1.3 0 2.36-1.06 2.37-2.36v-52.1c0-1.3-1.06-2.36-2.37-2.36H5.47ZM76.98 9.42H5.02A4.26 4.26 0 0 1 .76 5.16v-.9C.76 1.9 2.66 0 5.02 0h71.96c2.35 0 4.26 1.9 4.26 4.26v.9c0 2.35-1.9 4.26-4.26 4.26ZM5.02 2.34c-1.06 0-1.91.86-1.92 1.92v.9c0 1.06.86 1.91 1.92 1.92h71.96c1.06 0 1.91-.86 1.92-1.92v-.9c0-1.06-.86-1.92-1.92-1.92H5.02Z" />
            <path
                d="M76.98 100H5.02a4.26 4.26 0 0 1-4.26-4.26v-.9c0-2.35 1.9-4.26 4.26-4.26h71.96c2.35 0 4.26 1.9 4.26 4.26v.9c0 2.35-1.9 4.26-4.26 4.26ZM5.02 92.92c-1.06 0-1.91.86-1.92 1.92v.9c0 1.06.86 1.92 1.92 1.92h71.96c1.06 0 1.91-.86 1.92-1.92v-.9c0-1.06-.86-1.91-1.92-1.92H5.02Z" />
        </symbol>
        <symbol id="chair" viewBox="0 0 100 78">
            <path
                d="M75.9 41.66H24.1a4.51 4.51 0 0 1-4.5-4.5V4.62c0-2.49 2.02-4.5 4.5-4.5h51.8c2.48 0 4.5 2.01 4.5 4.5v32.52c0 2.5-2.02 4.5-4.5 4.51ZM24.1 2.46c-1.2 0-2.16.98-2.16 2.17v32.52c0 1.2.97 2.17 2.16 2.17h51.8c1.2 0 2.16-.97 2.16-2.17V4.63c0-1.2-.97-2.16-2.16-2.16H24.1Z" />
            <path
                d="M75.9 70.9H24.1a4.51 4.51 0 0 1-4.5-4.51V43.82c0-2.48 2.02-4.5 4.5-4.5h51.8c2.48 0 4.5 2.02 4.5 4.5V66.4c0 2.48-2.02 4.5-4.5 4.5ZM24.1 41.65c-1.2 0-2.16.97-2.16 2.16V66.4c0 1.19.97 2.16 2.16 2.16h51.8c1.2 0 2.16-.97 2.16-2.16V43.82c0-1.19-.97-2.16-2.16-2.16H24.1Z" />
            <path
                d="M95.5 70.9H82.56a4.51 4.51 0 0 1-4.51-4.51V26.84c0-2.48 2.02-4.5 4.5-4.5H95.5c2.5 0 4.5 2.02 4.51 4.5V66.4c0 2.48-2.02 4.5-4.5 4.5ZM82.56 24.67c-1.2 0-2.17.97-2.17 2.16V66.4c0 1.19.97 2.16 2.17 2.16h12.92c1.2 0 2.16-.97 2.17-2.16V26.84c0-1.19-.97-2.16-2.17-2.16H82.57ZM17.43 70.9H4.51A4.51 4.51 0 0 1 0 66.38V26.84c0-2.48 2.02-4.5 4.5-4.5h12.93c2.5 0 4.5 2.02 4.51 4.5V66.4c0 2.48-2.02 4.5-4.5 4.5ZM4.51 24.67c-1.2 0-2.16.97-2.17 2.16V66.4c0 1.19.97 2.16 2.17 2.16h12.92c1.2 0 2.17-.97 2.17-2.16V26.84c0-1.19-.97-2.16-2.17-2.16H4.51Z" />
            <path
                d="M79.23 56.28H20.77a1.17 1.17 0 0 1 0-2.35h58.46a1.17 1.17 0 0 1 0 2.35ZM10.97 77.88a4.22 4.22 0 0 1-4.1-3.2L5.7 70a1.17 1.17 0 0 1 1.14-1.45h8.26A1.17 1.17 0 0 1 16.24 70l-1.17 4.67a4.22 4.22 0 0 1-4.1 3.2Zm-2.63-6.99.8 3.21a1.88 1.88 0 0 0 3.66 0l.8-3.2H8.34ZM89.03 77.88a4.22 4.22 0 0 1-4.1-3.2L83.76 70a1.17 1.17 0 0 1 1.14-1.45h8.26A1.17 1.17 0 0 1 94.3 70l-1.17 4.67a4.22 4.22 0 0 1-4.1 3.2Zm-2.63-6.99.8 3.21a1.88 1.88 0 0 0 3.66 0l.8-3.2H86.4Z" />
        </symbol>
        <symbol id="commode" viewBox="0 0 100 87">
            <path
                d="M93.55 36.07H6.45c-.64 0-1.17-.52-1.17-1.17V9.43c0-.65.53-1.17 1.17-1.17h87.1c.64 0 1.17.52 1.17 1.17V34.9c0 .65-.53 1.17-1.17 1.17ZM7.63 33.73h84.74V10.6H7.63v23.13Z" />
            <path
                d="M93.55 61.55H6.45c-.64 0-1.17-.53-1.17-1.18V34.9c0-.64.53-1.17 1.17-1.17h87.1c.64 0 1.17.53 1.17 1.17v25.47c0 .65-.53 1.18-1.17 1.18ZM7.63 59.2h84.74V36.07H7.63V59.2Z" />
            <path
                d="M93.55 87.02H6.45c-.64 0-1.17-.53-1.17-1.17V60.37c0-.64.53-1.17 1.17-1.17h87.1c.64 0 1.17.53 1.17 1.17v25.48c0 .64-.53 1.17-1.17 1.17ZM7.63 84.67h84.74V61.55H7.63v23.12ZM52.2 23.34h-4.4a1.17 1.17 0 1 1 0-2.35h4.4a1.17 1.17 0 0 1 0 2.35ZM52.2 48.81h-4.4a1.17 1.17 0 1 1 0-2.34h4.4a1.17 1.17 0 0 1 0 2.34Z" />
            <path
                d="M52.2 74.28h-4.4a1.17 1.17 0 1 1 0-2.34h4.4a1.17 1.17 0 0 1 0 2.34ZM96.88 10.6H3.13A3.13 3.13 0 0 1 0 7.48V4.1C0 2.38 1.4.98 3.13.98h93.74c1.73 0 3.13 1.4 3.13 3.13v3.37c0 1.72-1.4 3.12-3.13 3.12ZM3.13 3.32a.78.78 0 0 0-.79.79v3.37c0 .43.35.78.79.78h93.74c.44 0 .79-.35.79-.78V4.1a.78.78 0 0 0-.78-.79H3.13Z" />
        </symbol>
        <symbol id="wardrobe" viewBox="0 0 68 100">
            <path
                d="M66.76 100H1.23c-.64 0-1.17-.52-1.17-1.17V1.17C.06.52.6 0 1.23 0h65.53c.65 0 1.18.52 1.18 1.17v97.66c0 .65-.53 1.17-1.18 1.17ZM2.41 97.66h63.18V2.34H2.41v95.32Z" />
            <path
                d="M34 71.5c-.65 0-1.17-.38-1.17-.84V.84c0-.46.52-.84 1.17-.84.65 0 1.17.38 1.17.84v69.82c0 .46-.52.83-1.17.83ZM34 100H1.23c-.64 0-1.17-.52-1.17-1.17V84.58c0-.65.53-1.18 1.17-1.18H34c.65 0 1.17.53 1.17 1.18v14.25c0 .65-.52 1.17-1.17 1.17ZM2.4 97.66h30.43V85.75H2.4v11.9Z" />
            <path
                d="M34 85.75H1.23c-.64 0-1.17-.53-1.17-1.17V70.32c0-.64.53-1.17 1.17-1.17H34c.65 0 1.17.53 1.17 1.17v14.26c0 .64-.52 1.17-1.17 1.17ZM2.4 83.4h30.43V71.5H2.4v11.9Z" />
            <path
                d="M19.27 78.62h-3.3a1.17 1.17 0 0 1 0-2.34h3.3a1.17 1.17 0 0 1 0 2.34ZM27.1 38.35c-.65 0-1.18-.52-1.18-1.17v-2.87a1.17 1.17 0 1 1 2.35 0v2.87c0 .65-.53 1.17-1.18 1.17ZM40.9 52.6c-.64 0-1.17-.52-1.17-1.16v-2.87a1.17 1.17 0 1 1 2.35 0v2.87c0 .64-.53 1.17-1.17 1.17ZM19.27 92.87h-3.3a1.17 1.17 0 1 1 0-2.34h3.3a1.17 1.17 0 0 1 0 2.34Z" />
        </symbol>
        <symbol id="kitchen" viewBox="0 0 100 90">
            <path
                d="M67.79 88.13H32.2c-.65 0-1.17-.52-1.17-1.17V59.7c0-.64.52-1.17 1.17-1.17H67.8c.64 0 1.17.53 1.17 1.17v27.25c0 .65-.52 1.17-1.17 1.17Zm-34.4-2.34h33.23v-24.9H33.38v24.9Z" />
            <path
                d="M67.79 93.14H32.2c-.65 0-1.17-.52-1.17-1.17v-5.01c0-.65.52-1.17 1.17-1.17H67.8c.64 0 1.17.52 1.17 1.17v5.01c0 .65-.52 1.17-1.17 1.17Zm-34.4-2.34h33.23v-2.67H33.38v2.67ZM67.79 60.89H32.2c-.65 0-1.17-.53-1.17-1.18V48.16c0-.64.52-1.17 1.17-1.17H67.8c.64 0 1.17.53 1.17 1.17v11.55c0 .65-.52 1.18-1.17 1.18Zm-34.4-2.35h33.23v-9.2H33.38v9.2Z" />
            <path
                d="M50 57.74a3.8 3.8 0 1 1 0-7.6 3.8 3.8 0 0 1 0 7.6Zm0-5.26a1.45 1.45 0 1 0 0 2.91 1.45 1.45 0 0 0 0-2.9ZM59.87 57.74a3.8 3.8 0 1 1 0-7.6 3.8 3.8 0 0 1 0 7.6Zm0-5.26a1.45 1.45 0 1 0 0 2.91 1.45 1.45 0 0 0 0-2.9ZM40.13 57.74a3.8 3.8 0 1 1 0-7.6 3.8 3.8 0 0 1 0 7.6Zm0-5.26a1.45 1.45 0 1 0 0 2.91 1.45 1.45 0 0 0 0-2.9ZM60.9 67.74H39.1a2.76 2.76 0 0 1 0-5.52h21.8a2.76 2.76 0 1 1 .01 5.52Zm-21.8-3.17a.41.41 0 0 0 0 .82h21.8a.41.41 0 1 0 0-.82H39.1Z" />
            <path
                d="M59.87 84.39H40.13c-.64 0-1.17-.53-1.17-1.17V66.56c0-.64.53-1.17 1.17-1.17h19.74c.64 0 1.17.53 1.17 1.17v16.66c0 .64-.53 1.17-1.17 1.17ZM41.3 82.05h17.4V67.74H41.3v14.3ZM42.2 49.33c-.66 0-1.18-.52-1.18-1.17v-2.9a1.17 1.17 0 0 1 2.34 0v2.9c0 .65-.52 1.17-1.17 1.17ZM47.75 49.33c-.65 0-1.18-.52-1.18-1.17v-1.73h-1.56a1.17 1.17 0 0 1 0-2.35h2.74c.64 0 1.17.53 1.17 1.17v2.91c0 .65-.53 1.17-1.17 1.17ZM36.64 49.33c-.65 0-1.18-.52-1.18-1.17v-2.9c0-.65.53-1.18 1.18-1.18h2.73a1.17 1.17 0 0 1 0 2.35h-1.56v1.73c0 .65-.53 1.17-1.17 1.17ZM57.8 49.33c-.64 0-1.16-.52-1.16-1.17v-2.9a1.17 1.17 0 0 1 2.34 0v2.9c0 .65-.52 1.17-1.17 1.17ZM52.25 49.33c-.64 0-1.17-.52-1.17-1.17v-2.9c0-.65.53-1.18 1.17-1.18H55a1.17 1.17 0 0 1 0 2.35h-1.56v1.73c0 .65-.53 1.17-1.18 1.17ZM63.36 49.33c-.64 0-1.17-.52-1.17-1.17v-1.73h-1.56a1.17 1.17 0 0 1 0-2.35h2.73c.65 0 1.18.53 1.18 1.17v2.91c0 .65-.53 1.17-1.18 1.17ZM73.45 53.6h-2.1a1.17 1.17 0 0 1 0-2.34h2.1a1.17 1.17 0 0 1 0 2.34Z" />
            <path
                d="M77.02 93.14h-9.23c-.65 0-1.17-.52-1.17-1.17v-43.8c0-.65.52-1.18 1.17-1.18h9.23c.65 0 1.17.53 1.17 1.17v43.81c0 .65-.52 1.17-1.17 1.17Zm-8.06-2.34h6.89V49.33h-6.89V90.8Z" />
            <path
                d="M98.83 71.24H77.02c-.65 0-1.17-.53-1.17-1.17v-21.9c0-.65.52-1.18 1.17-1.18h21.8c.66 0 1.18.53 1.18 1.17v21.9c0 .65-.52 1.18-1.17 1.18ZM78.19 68.9h19.47V49.33H78.19V68.9Z" />
            <path
                d="M90.73 53.6h-5.62a1.17 1.17 0 0 1 0-2.34h5.62a1.17 1.17 0 0 1 0 2.34ZM19.5 53.6h-5.62a1.17 1.17 0 0 1 0-2.34h5.62a1.17 1.17 0 0 1 0 2.34ZM98.83 93.14H77.02c-.65 0-1.17-.52-1.17-1.17v-21.9c0-.65.52-1.17 1.17-1.17h21.8c.66 0 1.18.52 1.18 1.17v21.9c0 .65-.52 1.17-1.17 1.17ZM78.19 90.8h19.47V71.24H78.19V90.8Z" />
            <path
                d="M90.73 75.5h-5.62a1.17 1.17 0 0 1 0-2.34h5.62a1.17 1.17 0 0 1 0 2.35ZM16.7 93.14H1.16c-.65 0-1.17-.52-1.17-1.17V59.71c0-.64.52-1.17 1.17-1.17H16.7c.65 0 1.17.53 1.17 1.17v32.26c0 .65-.52 1.17-1.17 1.17ZM2.33 90.8h13.18V60.9H2.34V90.8Z" />
            <path
                d="M32.21 93.14H16.7c-.65 0-1.17-.52-1.17-1.17V59.71c0-.64.52-1.17 1.17-1.17h15.52c.65 0 1.17.53 1.17 1.17v32.26c0 .65-.52 1.17-1.17 1.17ZM17.86 90.8h13.18V60.9H17.86V90.8Z" />
            <path
                d="M20.4 78.97c-.65 0-1.17-.53-1.17-1.18v-3.9a1.17 1.17 0 0 1 2.34 0v3.9c0 .65-.53 1.18-1.17 1.18ZM12.99 78.97c-.65 0-1.18-.53-1.18-1.18v-3.9a1.17 1.17 0 0 1 2.35 0v3.9c0 .65-.53 1.18-1.17 1.18ZM32.21 60.89H1.17C.52 60.89 0 60.36 0 59.7V48.16C0 47.52.52 47 1.17 47h31.04c.65 0 1.17.53 1.17 1.17v11.55c0 .65-.52 1.18-1.17 1.18ZM2.34 58.54h28.7v-9.2H2.34v9.2ZM66.47 24.78H33.53a2.5 2.5 0 0 1-2.49-2.5v-3.36a2.5 2.5 0 0 1 2.5-2.5h32.93a2.5 2.5 0 0 1 2.49 2.5v3.36a2.5 2.5 0 0 1-2.5 2.5Zm-32.94-6.01a.15.15 0 0 0-.15.15v3.36c0 .09.07.15.15.15h32.94c.08 0 .15-.06.15-.15v-3.36a.15.15 0 0 0-.15-.15H33.53Z" />
            <path
                d="M64.02 18.77H35.98a2.47 2.47 0 0 1-1.53-4.41l.9-.7a14.67 14.67 0 0 0 5.67-11.63c0-.65.52-1.17 1.17-1.17h15.62c.65 0 1.17.52 1.17 1.17a14.67 14.67 0 0 0 5.66 11.62l.9.7a2.47 2.47 0 0 1-1.52 4.42ZM43.32 3.2a16.98 16.98 0 0 1-6.52 12.3l-.9.7a.13.13 0 0 0 .08.23h28.04a.13.13 0 0 0 .08-.23l-.9-.7a16.98 16.98 0 0 1-6.52-12.3H43.32ZM95.2 24.78H76.55a2.94 2.94 0 0 1 0-5.88H95.2a2.94 2.94 0 1 1 0 5.88Zm-18.65-3.53a.6.6 0 0 0 0 1.18H95.2a.6.6 0 0 0 0-1.18H76.55ZM23.45 24.78H4.8a2.94 2.94 0 0 1 0-5.88h18.65a2.94 2.94 0 1 1 0 5.88ZM4.8 21.25a.6.6 0 1 0 0 1.18h18.65a.6.6 0 1 0 0-1.18H4.8Z" />
            <path
                d="M21.58 21.25H16.8c-.65 0-1.17-.53-1.17-1.17v-4.03c0-.65.52-1.18 1.17-1.18h4.77c.64 0 1.17.53 1.17 1.18v4.03c0 .64-.53 1.17-1.17 1.17Zm-3.6-2.35h2.43v-1.68h-2.43v1.68Z" />
            <path
                d="M22.7 17.22H15.7a1.17 1.17 0 0 1 0-2.35h7.01a1.17 1.17 0 0 1 0 2.35ZM11.44 21.25H6.67c-.65 0-1.17-.53-1.17-1.17v-4.03c0-.65.52-1.18 1.17-1.18h4.77c.64 0 1.17.53 1.17 1.18v4.03c0 .64-.53 1.17-1.17 1.17Zm-3.6-2.35h2.43v-1.68H7.84v1.68Z" />
            <path
                d="M12.56 17.22H5.55a1.17 1.17 0 0 1 0-2.35h7.01a1.17 1.17 0 1 1 0 2.35ZM21.58 17.22H16.8c-.65 0-1.17-.53-1.17-1.17v-4.03c0-.65.52-1.17 1.17-1.17h4.77c.64 0 1.17.52 1.17 1.17v4.03c0 .64-.53 1.17-1.17 1.17Zm-3.6-2.35h2.43V13.2h-2.43v1.68Z" />
            <path
                d="M22.7 13.19H15.7a1.17 1.17 0 0 1 0-2.34h7.01a1.17 1.17 0 0 1 0 2.34ZM11.44 17.22H6.67c-.65 0-1.17-.53-1.17-1.17v-4.03c0-.65.52-1.17 1.17-1.17h4.77c.64 0 1.17.52 1.17 1.17v4.03c0 .64-.53 1.17-1.17 1.17Zm-3.6-2.35h2.43V13.2H7.84v1.68Z" />
            <path
                d="M12.56 13.19H5.55a1.17 1.17 0 0 1 0-2.34h7.01a1.17 1.17 0 1 1 0 2.34ZM85.88 21.25a7.56 7.56 0 0 1-6.4-11.59c.2-.34.58-.55.98-.55H91.3c.4 0 .78.2.99.55a7.56 7.56 0 0 1-6.4 11.59Zm-4.73-9.8a5.22 5.22 0 1 0 9.45 0h-9.45Z" />
            <path
                d="M85.77 11.46c-.65 0-1.18-.53-1.18-1.18V2.74a1.17 1.17 0 0 1 2.35 0v7.54c0 .65-.53 1.18-1.17 1.18Z" />
            <path
                d="M85.77 11.46a1.17 1.17 0 0 1-.83-2l4.05-4.06a1.17 1.17 0 0 1 1.66 1.66L86.6 11.1c-.22.22-.52.35-.83.35Z" />
            <path
                d="M85.77 11.46c-.31 0-.61-.13-.83-.35l-4.06-4.05a1.17 1.17 0 1 1 1.64-1.68l.02.02 4.06 4.06a1.17 1.17 0 0 1-.83 2ZM60.86 46.43h-5.72a5.88 5.88 0 0 1-5.87-5.87V37.8c0-.65.53-1.17 1.17-1.17h15.12c.64 0 1.17.52 1.17 1.17v2.76a5.88 5.88 0 0 1-5.87 5.87Zm-9.24-7.46v1.59a3.53 3.53 0 0 0 3.52 3.52h5.72a3.53 3.53 0 0 0 3.52-3.52v-1.59H51.62Z" />
            <path
                d="M67.79 41.04h-2.23a1.17 1.17 0 0 1 0-2.35h2.23a1.17 1.17 0 1 1 0 2.35ZM50.06 41.04h-2.23a1.17 1.17 0 0 1 0-2.35h2.23a1.17 1.17 0 0 1 0 2.35Z" />
            <path
                d="M65.56 38.97H50.44a1.17 1.17 0 0 1-.96-1.83c1.64-2.39 4.9-3.87 8.52-3.87 3.62 0 6.88 1.48 8.52 3.87a1.17 1.17 0 0 1-.96 1.83Zm-11.97-2.34h8.82a10.08 10.08 0 0 0-8.82 0Z" />
            <path
                d="M56.57 35.7c-.29 0-.57-.1-.78-.3a3.33 3.33 0 1 1 4.42 0 1.17 1.17 0 1 1-1.56-1.74.98.98 0 1 0-1.3 0 1.17 1.17 0 0 1-.78 2.04ZM13.9 49.33H8.95c-.64 0-1.17-.52-1.17-1.17V35.58c0-.65.53-1.18 1.17-1.18h4.95c.65 0 1.17.53 1.17 1.18v12.58c0 .65-.52 1.17-1.17 1.17ZM10.12 47h2.61V36.75h-2.6v10.24Z" />
            <path
                d="M8.95 49.33H4c-.64 0-1.17-.52-1.17-1.17V35.58c0-.65.53-1.18 1.17-1.18h4.95c.65 0 1.17.53 1.17 1.18v12.58c0 .65-.52 1.17-1.17 1.17ZM5.18 47h2.6V36.75h-2.6v10.24ZM24.77 49.33h-2.2a4.06 4.06 0 0 1-4.06-4.05v-4.1c0-.65.53-1.18 1.18-1.18h7.96c.65 0 1.18.53 1.18 1.17v4.11a4.06 4.06 0 0 1-4.06 4.05Zm-3.91-6.98v2.93c0 .95.76 1.7 1.7 1.71h2.21c.95 0 1.71-.76 1.71-1.7v-2.94h-5.62Z" />
            <path
                d="M28.34 42.35H19c-1.22 0-2.21-1-2.21-2.22v-1.21c0-1.22.99-2.22 2.21-2.22h9.34c1.22 0 2.21 1 2.21 2.22v1.21c0 1.22-.99 2.21-2.21 2.22ZM19.13 40h9.08v-.95h-9.08V40ZM77.97 49.33h-6.03c-.65 0-1.18-.52-1.18-1.17v-8.24c0-.65.53-1.18 1.18-1.18h6.03c.65 0 1.17.53 1.17 1.18v8.24c0 .65-.52 1.17-1.17 1.17ZM73.11 47h3.69v-5.9h-3.7v5.9Z" />
            <path
                d="M77.97 41.09h-6.03c-.65 0-1.18-.53-1.18-1.17v-3.6c0-.65.53-1.18 1.18-1.18h6.03c.65 0 1.17.53 1.17 1.17v3.6c0 .65-.52 1.18-1.17 1.18Zm-4.86-2.35h3.69V37.5h-3.7v1.25ZM92.44 45.37c-1.92 0-3.42-1.84-3.42-4.2 0-2.35 1.5-4.2 3.42-4.2 1.91 0 3.41 1.85 3.41 4.2 0 2.36-1.5 4.2-3.41 4.2Zm0-6.05c-.5 0-1.07.8-1.07 1.85 0 1.06.56 1.86 1.07 1.86.5 0 1.07-.8 1.07-1.86s-.57-1.85-1.07-1.85Z" />
            <path
                d="M92.44 39.3c-.55 0-1.02-.38-1.15-.91l-1.79-7.81a3.01 3.01 0 1 1 5.87 0l-1.8 7.81c-.11.53-.59.91-1.13.91Zm0-10.06a.67.67 0 0 0-.65.81l.65 2.83.65-2.83a.67.67 0 0 0-.65-.81ZM84 39.3c-.54 0-1.01-.38-1.13-.91l-1.8-7.81a3 3 0 1 1 5.87 0l-1.79 7.81c-.12.53-.6.91-1.14.91Zm0-10.06a.67.67 0 0 0-.64.81l.65 2.83.65-2.83a.67.67 0 0 0-.65-.81Z" />
            <path
                d="M86.7 43.09h-5.39c-.58 0-1.07-.43-1.15-1-.2-1.36.19-2.73 1.08-3.77A3.74 3.74 0 0 1 84 36.94c1 0 2.01.5 2.77 1.38a4.71 4.71 0 0 1 1.08 3.76c-.08.58-.58 1-1.16 1Zm-4.16-2.35h2.94a2.27 2.27 0 0 0-.47-.89c-.3-.34-.7-.56-1-.56-.31 0-.7.22-1 .56-.22.26-.39.57-.47.9Z" />
        </symbol>
        <symbol id="footer-logo" viewBox="0 0 125 75">
            <path fill="#44C697"
                d="M31.83 29.49h56.55V21.5H31.83V8.04h56.55V.06h-60.9a3.68 3.68 0 0 0-3.68 3.66v39.3h8.03V29.48Z" />
            <path fill="#fff" d="M97.58 0h-4.41v42.95h8.03V3.65A3.59 3.59 0 0 0 97.58 0Z" />
            <path fill="#fff"
                d="M107.58 27.96V49.3H17.42V27.96H4.6A4.58 4.58 0 0 0 0 32.53v12.13a4.58 4.58 0 0 0 4.6 4.57h2.94l1.3 14.99V75h3.3l3.87-10.78h92.98L112.86 75h3.3V64.22l1.3-15h2.94c2.58 0 4.6-2.06 4.6-4.56V32.53a4.58 4.58 0 0 0-4.6-4.57h-12.82Z" />
        </symbol>
    </defs>
</svg>